# Blender 3.6.2
# www.blender.org
mtllib plane_with_cubes.mtl
o Plane
v -18.684889 0.000000 18.684889
v 18.684889 0.000000 18.684889
v -18.684889 0.000000 -18.684889
v 18.684889 0.000000 -18.684889
vn -0.0000 1.0000 -0.0000
vt -1.036404 -1.036404
vt 2.036404 -1.036404
vt 2.036404 2.036404
vt -1.036404 2.036404
s 0
usemtl Material.001
f 1/1/1 2/2/1 4/3/1 3/4/1
o Cube
v -1.000000 -0.015755 1.000000
v -1.000000 1.984245 1.000000
v -1.000000 -0.015755 -1.000000
v -1.000000 1.984245 -1.000000
v 1.000000 -0.015755 1.000000
v 1.000000 1.984245 1.000000
v 1.000000 -0.015755 -1.000000
v 1.000000 1.984245 -1.000000
vn -1.0000 -0.0000 -0.0000
vn -0.0000 -0.0000 -1.0000
vn 1.0000 -0.0000 -0.0000
vn -0.0000 -0.0000 1.0000
vn -0.0000 -1.0000 -0.0000
vn -0.0000 1.0000 -0.0000
vt 0.008275 0.990122
vt 0.008275 0.009035
vt 0.989363 0.009035
vt 0.989363 0.990122
vt 0.005965 0.995462
vt 0.005965 0.004539
vt 0.996888 0.004539
vt 0.996888 0.995462
vt 1.025148 -0.017907
vt -0.018667 -0.017907
vt -0.018667 -1.061721
vt 1.025148 -1.061721
vt 0.995262 1.000022
vt 0.003219 1.000022
vt 0.003219 0.007979
vt 0.995262 0.007978
vt 0.994703 0.995091
vt 0.000149 0.995091
vt 0.000149 0.000538
vt 0.994703 0.000538
vt 0.997713 0.996286
vt 0.000768 0.996286
vt 0.000768 -0.000658
vt 0.997713 -0.000658
s 0
usemtl Material.002
f 5/5/2 6/6/2 8/7/2 7/8/2
f 7/9/3 8/10/3 12/11/3 11/12/3
f 11/13/4 12/14/4 10/15/4 9/16/4
f 9/17/5 10/18/5 6/19/5 5/20/5
f 7/21/6 11/22/6 9/23/6 5/24/6
f 12/25/7 8/26/7 6/27/7 10/28/7
o Cube.008
v -0.090160 -0.015755 -3.680548
v -0.090160 1.984245 -3.680548
v -1.442540 -0.015755 -5.154003
v -1.442540 1.984245 -5.154003
v 1.383295 -0.015755 -5.032927
v 1.383295 1.984245 -5.032927
v 0.030915 -0.015755 -6.506382
v 0.030915 1.984245 -6.506382
vn -0.7367 -0.0000 0.6762
vn -0.6762 -0.0000 -0.7367
vn 0.7367 -0.0000 -0.6762
vn 0.6762 -0.0000 0.7367
vn -0.0000 -1.0000 -0.0000
vn -0.0000 1.0000 -0.0000
vt 0.008275 0.990122
vt 0.008275 0.009035
vt 0.989363 0.009035
vt 0.989363 0.990122
vt 0.005965 0.995462
vt 0.005965 0.004539
vt 0.996888 0.004539
vt 0.996888 0.995462
vt 1.025148 -0.017907
vt -0.018667 -0.017907
vt -0.018667 -1.061721
vt 1.025148 -1.061721
vt 0.995262 1.000022
vt 0.003219 1.000022
vt 0.003219 0.007979
vt 0.995262 0.007978
vt 0.994703 0.995091
vt 0.000149 0.995091
vt 0.000149 0.000538
vt 0.994703 0.000538
vt 0.997713 0.996286
vt 0.000768 0.996286
vt 0.000768 -0.000658
vt 0.997713 -0.000658
s 0
usemtl Material.002
f 13/29/8 14/30/8 16/31/8 15/32/8
f 15/33/9 16/34/9 20/35/9 19/36/9
f 19/37/10 20/38/10 18/39/10 17/40/10
f 17/41/11 18/42/11 14/43/11 13/44/11
f 15/45/12 19/46/12 17/47/12 13/48/12
f 20/49/13 16/50/13 14/51/13 18/52/13
o Cube.001
v -10.537972 -0.015755 -3.969116
v -10.537972 1.984245 -3.969116
v -10.869185 -0.015755 -5.941500
v -10.869185 1.984245 -5.941500
v -8.565589 -0.015755 -4.300328
v -8.565589 1.984245 -4.300328
v -8.896802 -0.015755 -6.272712
v -8.896802 1.984245 -6.272712
vn -0.9862 -0.0000 0.1656
vn -0.1656 -0.0000 -0.9862
vn 0.9862 -0.0000 -0.1656
vn 0.1656 -0.0000 0.9862
vn -0.0000 -1.0000 -0.0000
vn -0.0000 1.0000 -0.0000
vt 0.008275 0.990122
vt 0.008275 0.009035
vt 0.989363 0.009035
vt 0.989363 0.990122
vt 0.005965 0.995462
vt 0.005965 0.004539
vt 0.996888 0.004539
vt 0.996888 0.995462
vt 1.025148 -0.017907
vt -0.018667 -0.017907
vt -0.018667 -1.061721
vt 1.025148 -1.061721
vt 0.995262 1.000022
vt 0.003219 1.000022
vt 0.003219 0.007979
vt 0.995262 0.007978
vt 0.994703 0.995091
vt 0.000149 0.995091
vt 0.000149 0.000538
vt 0.994703 0.000538
vt 0.997713 0.996286
vt 0.000768 0.996286
vt 0.000768 -0.000658
vt 0.997713 -0.000658
s 0
usemtl Material.002
f 21/53/14 22/54/14 24/55/14 23/56/14
f 23/57/15 24/58/15 28/59/15 27/60/15
f 27/61/16 28/62/16 26/63/16 25/64/16
f 25/65/17 26/66/17 22/67/17 21/68/17
f 23/69/18 27/70/18 25/71/18 21/72/18
f 28/73/19 24/74/19 22/75/19 26/76/19
o Cube.002
v -9.351483 -0.015755 11.181376
v -9.351483 1.984245 11.181376
v -9.351483 -0.015755 9.181376
v -9.351483 1.984245 9.181376
v -7.351483 -0.015755 11.181376
v -7.351483 1.984245 11.181376
v -7.351483 -0.015755 9.181376
v -7.351483 1.984245 9.181376
vn -1.0000 -0.0000 -0.0000
vn -0.0000 -0.0000 -1.0000
vn 1.0000 -0.0000 -0.0000
vn -0.0000 -0.0000 1.0000
vn -0.0000 -1.0000 -0.0000
vn -0.0000 1.0000 -0.0000
vt 0.008275 0.990122
vt 0.008275 0.009035
vt 0.989363 0.009035
vt 0.989363 0.990122
vt 0.005965 0.995462
vt 0.005965 0.004539
vt 0.996888 0.004539
vt 0.996888 0.995462
vt 1.025148 -0.017907
vt -0.018667 -0.017907
vt -0.018667 -1.061721
vt 1.025148 -1.061721
vt 0.995262 1.000022
vt 0.003219 1.000022
vt 0.003219 0.007979
vt 0.995262 0.007978
vt 0.994703 0.995091
vt 0.000149 0.995091
vt 0.000149 0.000538
vt 0.994703 0.000538
vt 0.997713 0.996286
vt 0.000768 0.996286
vt 0.000768 -0.000658
vt 0.997713 -0.000658
s 0
usemtl Material.002
f 29/77/20 30/78/20 32/79/20 31/80/20
f 31/81/21 32/82/21 36/83/21 35/84/21
f 35/85/22 36/86/22 34/87/22 33/88/22
f 33/89/23 34/90/23 30/91/23 29/92/23
f 31/93/24 35/94/24 33/95/24 29/96/24
f 36/97/25 32/98/25 30/99/25 34/100/25
o Cube.004
v 8.952729 -0.015755 -6.954586
v 8.952729 1.984245 -6.954586
v 8.270303 -0.015755 -8.834558
v 8.270303 1.984245 -8.834558
v 10.832702 -0.015755 -7.637012
v 10.832702 1.984245 -7.637012
v 10.150275 -0.015755 -9.516984
v 10.150275 1.984245 -9.516984
vn -0.9400 -0.0000 0.3412
vn -0.3412 -0.0000 -0.9400
vn 0.9400 -0.0000 -0.3412
vn 0.3412 -0.0000 0.9400
vn -0.0000 -1.0000 -0.0000
vn -0.0000 1.0000 -0.0000
vt 0.008275 0.990122
vt 0.008275 0.009035
vt 0.989363 0.009035
vt 0.989363 0.990122
vt 0.005965 0.995462
vt 0.005965 0.004539
vt 0.996888 0.004539
vt 0.996888 0.995462
vt 1.025148 -0.017907
vt -0.018667 -0.017907
vt -0.018667 -1.061721
vt 1.025148 -1.061721
vt 0.995262 1.000022
vt 0.003219 1.000022
vt 0.003219 0.007979
vt 0.995262 0.007978
vt 0.994703 0.995091
vt 0.000149 0.995091
vt 0.000149 0.000538
vt 0.994703 0.000538
vt 0.997713 0.996286
vt 0.000768 0.996286
vt 0.000768 -0.000658
vt 0.997713 -0.000658
s 0
usemtl Material.002
f 37/101/26 38/102/26 40/103/26 39/104/26
f 39/105/27 40/106/27 44/107/27 43/108/27
f 43/109/28 44/110/28 42/111/28 41/112/28
f 41/113/29 42/114/29 38/115/29 37/116/29
f 39/117/30 43/118/30 41/119/30 37/120/30
f 44/121/31 40/122/31 38/123/31 42/124/31
o Cube.005
v 8.505094 1.987173 -7.284454
v 8.505094 3.987173 -7.284454
v 8.600172 1.987173 -9.282193
v 8.600172 3.987173 -9.282193
v 10.502832 1.987173 -7.189376
v 10.502832 3.987173 -7.189376
v 10.597911 1.987173 -9.187115
v 10.597911 3.987173 -9.187115
vn -0.9989 -0.0000 -0.0475
vn 0.0475 -0.0000 -0.9989
vn 0.9989 -0.0000 0.0475
vn -0.0475 -0.0000 0.9989
vn -0.0000 -1.0000 -0.0000
vn -0.0000 1.0000 -0.0000
vt 0.008275 0.990122
vt 0.008275 0.009035
vt 0.989363 0.009035
vt 0.989363 0.990122
vt 0.005965 0.995462
vt 0.005965 0.004539
vt 0.996888 0.004539
vt 0.996888 0.995462
vt 1.025148 -0.017907
vt -0.018667 -0.017907
vt -0.018667 -1.061721
vt 1.025148 -1.061721
vt 0.995262 1.000022
vt 0.003219 1.000022
vt 0.003219 0.007979
vt 0.995262 0.007978
vt 0.994703 0.995091
vt 0.000149 0.995091
vt 0.000149 0.000538
vt 0.994703 0.000538
vt 0.997713 0.996286
vt 0.000768 0.996286
vt 0.000768 -0.000658
vt 0.997713 -0.000658
s 0
usemtl Material.002
f 45/125/32 46/126/32 48/127/32 47/128/32
f 47/129/33 48/130/33 52/131/33 51/132/33
f 51/133/34 52/134/34 50/135/34 49/136/34
f 49/137/35 50/138/35 46/139/35 45/140/35
f 47/141/36 51/142/36 49/143/36 45/144/36
f 52/145/37 48/146/37 46/147/37 50/148/37
o Cube.007
v 13.130716 -0.015755 -9.697268
v 13.130716 1.984245 -9.697268
v 13.921130 -0.015755 -11.534452
v 13.921130 1.984245 -11.534452
v 14.967900 -0.015755 -8.906855
v 14.967900 1.984245 -8.906855
v 15.758314 -0.015755 -10.744039
v 15.758314 1.984245 -10.744039
vn -0.9186 -0.0000 -0.3952
vn 0.3952 -0.0000 -0.9186
vn 0.9186 -0.0000 0.3952
vn -0.3952 -0.0000 0.9186
vn -0.0000 -1.0000 -0.0000
vn -0.0000 1.0000 -0.0000
vt 0.008275 0.990122
vt 0.008275 0.009035
vt 0.989363 0.009035
vt 0.989363 0.990122
vt 0.005965 0.995462
vt 0.005965 0.004539
vt 0.996888 0.004539
vt 0.996888 0.995462
vt 1.025148 -0.017907
vt -0.018667 -0.017907
vt -0.018667 -1.061721
vt 1.025148 -1.061721
vt 0.995262 1.000022
vt 0.003219 1.000022
vt 0.003219 0.007979
vt 0.995262 0.007978
vt 0.994703 0.995091
vt 0.000149 0.995091
vt 0.000149 0.000538
vt 0.994703 0.000538
vt 0.997713 0.996286
vt 0.000768 0.996286
vt 0.000768 -0.000658
vt 0.997713 -0.000658
s 0
usemtl Material.002
f 53/149/38 54/150/38 56/151/38 55/152/38
f 55/153/39 56/154/39 60/155/39 59/156/39
f 59/157/40 60/158/40 58/159/40 57/160/40
f 57/161/41 58/162/41 54/163/41 53/164/41
f 55/165/42 59/166/42 57/167/42 53/168/42
f 60/169/43 56/170/43 54/171/43 58/172/43
o Cube.006
v 11.750790 -0.015754 11.396752
v 11.750790 1.984246 11.396752
v 11.818274 -0.015754 9.397892
v 11.818274 1.984246 9.397892
v 13.749650 -0.015754 11.464237
v 13.749650 1.984246 11.464237
v 13.817135 -0.015754 9.465377
v 13.817135 1.984246 9.465377
vn -0.9994 -0.0000 -0.0337
vn 0.0337 -0.0000 -0.9994
vn 0.9994 -0.0000 0.0337
vn -0.0337 -0.0000 0.9994
vn -0.0000 -1.0000 -0.0000
vn -0.0000 1.0000 -0.0000
vt 0.008275 0.990122
vt 0.008275 0.009035
vt 0.989363 0.009035
vt 0.989363 0.990122
vt 0.005965 0.995462
vt 0.005965 0.004539
vt 0.996888 0.004539
vt 0.996888 0.995462
vt 1.025148 -0.017907
vt -0.018667 -0.017907
vt -0.018667 -1.061721
vt 1.025148 -1.061721
vt 0.995262 1.000022
vt 0.003219 1.000022
vt 0.003219 0.007979
vt 0.995262 0.007978
vt 0.994703 0.995091
vt 0.000149 0.995091
vt 0.000149 0.000538
vt 0.994703 0.000538
vt 0.997713 0.996286
vt 0.000768 0.996286
vt 0.000768 -0.000658
vt 0.997713 -0.000658
s 0
usemtl Material.002
f 61/173/44 62/174/44 64/175/44 63/176/44
f 63/177/45 64/178/45 68/179/45 67/180/45
f 67/181/46 68/182/46 66/183/46 65/184/46
f 65/185/47 66/186/47 62/187/47 61/188/47
f 63/189/48 67/190/48 65/191/48 61/192/48
f 68/193/49 64/194/49 62/195/49 66/196/49
